Coordinates
version=1
nRows=31
nColumns=38
inDegrees=no

Units are S.I. units (second, meters, Newtons, ...)
If the header above contains a line with 'inDegrees', this indicates whether rotational values are in degrees (yes) or radians (no).

endheader
time	pelvis_tilt	pelvis_list	pelvis_rotation	pelvis_tx	pelvis_ty	pelvis_tz	hip_flexion_r	hip_adduction_r	hip_rotation_r	knee_angle_r	ankle_angle_r	subtalar_angle_r	mtp_angle_r	hip_flexion_l	hip_adduction_l	hip_rotation_l	knee_angle_l	ankle_angle_l	subtalar_angle_l	mtp_angle_l	lumbar_extension	lumbar_bending	lumbar_rotation	arm_flex_r	arm_add_r	arm_rot_r	elbow_flex_r	pro_sup_r	wrist_flex_r	wrist_dev_r	arm_flex_l	arm_add_l	arm_rot_l	elbow_flex_l	pro_sup_l	wrist_flex_l	wrist_dev_l
0.53	-2.97751	1.40821	1.3742	0.707309	0.48565	1.02496	0.299442	0.0873467	-0.0605911	0.606116	0.227033	0	0	0.636826	-0.101272	-0.0616177	1.15404	0.143139	0	0	0.0782071	0.163683	0.0752547	-0.0371618	-0.457376	0.377493	0.768201	1.11402	0	0	-0.136032	-0.247422	0.648879	0.491382	1.37607	0	0
0.54	-3.00748	1.40696	1.396	0.706484	0.474798	1.02459	0.289471	0.0827123	-0.0623861	0.605893	0.229844	0	0	0.646731	-0.100707	-0.0739716	1.11463	0.149499	0	0	0.0798273	0.157848	0.0835606	-0.0251833	-0.465701	0.380373	0.782141	1.10878	0	0	-0.141523	-0.244022	0.65332	0.486578	1.3742	0	0
0.55	-3.03626	1.40525	1.4157	0.705547	0.463908	1.02406	0.280072	0.0788034	-0.0622267	0.605987	0.233638	0	0	0.654626	-0.101653	-0.0890212	1.07133	0.155547	0	0	0.0814304	0.152377	0.0934142	-0.0149673	-0.4741	0.381315	0.79738	1.10463	0	0	-0.146244	-0.240123	0.656035	0.480868	1.37071	0	0
0.56	-3.05818	1.40373	1.42895	0.704618	0.453153	1.0234	0.270697	0.0761961	-0.0604805	0.606914	0.237947	0	0	0.661138	-0.103777	-0.104972	1.02674	0.161335	0	0	0.0823804	0.147817	0.103416	-0.00556346	-0.48231	0.380626	0.812853	1.10134	0	0	-0.150503	-0.236493	0.658321	0.475123	1.36742	0	0
0.57	-3.07487	1.40246	1.43773	0.703757	0.442363	1.02264	0.26031	0.0743633	-0.0579358	0.606759	0.243173	0	0	0.665666	-0.107145	-0.123717	0.979048	0.166963	0	0	0.0827795	0.14414	0.112666	0.00292094	-0.490347	0.378474	0.828781	1.09853	0	0	-0.153868	-0.231635	0.658628	0.467752	1.36159	0	0
0.58	-3.08073	1.4024	1.43659	0.703	0.431309	1.02191	0.246086	0.0742833	-0.054697	0.601793	0.249203	0	0	0.667801	-0.112291	-0.14376	0.93104	0.170482	0	0	0.0799988	0.141807	0.12246	0.00366534	-0.490576	0.349274	0.846297	1.12587	0	0	-0.157313	-0.223931	0.644736	0.45883	1.36799	0	0
0.59	-3.08179	1.39897	1.43185	0.702377	0.420146	1.02073	0.235758	0.0753258	-0.0513425	0.598634	0.255522	0	0	0.673309	-0.117449	-0.16013	0.883005	0.173257	0	0	0.0857213	0.14139	0.133773	0.00624331	-0.501336	0.349138	0.862028	1.1101	0	0	-0.15415	-0.22469	0.687596	0.450449	1.32372	0	0
0.6	-3.07646	1.39523	1.422	0.701826	0.408897	1.01942	0.224675	0.0775962	-0.0478717	0.593649	0.259267	0	0	0.678606	-0.123102	-0.173561	0.834637	0.173819	0	0	0.089395	0.141143	0.137412	0.0134723	-0.506391	0.345558	0.874031	1.11376	0	0	-0.159746	-0.218788	0.678327	0.442997	1.32355	0	0
0.61	-3.06884	1.39017	1.41066	0.701354	0.397604	1.01779	0.215789	0.0801081	-0.0458487	0.59153	0.26211	0	0	0.68541	-0.128599	-0.183667	0.788685	0.177235	0	0	0.0947649	0.141087	0.13689	0.0251451	-0.511262	0.350463	0.882257	1.11448	0	0	-0.168992	-0.211992	0.65538	0.437416	1.33982	0	0
0.62	-3.05841	1.3878	1.39651	0.70088	0.386216	1.0163	0.202422	0.0829217	-0.0420272	0.585906	0.265872	0	0	0.687988	-0.134386	-0.194141	0.743215	0.177626	0	0	0.0978652	0.14158	0.140885	0.0317881	-0.516538	0.34934	0.891704	1.11223	0	0	-0.171557	-0.208137	0.660833	0.429567	1.33356	0	0
0.63	-3.04239	1.38929	1.37758	0.700552	0.374639	1.01515	0.182428	0.0857485	-0.0385236	0.574257	0.266104	0	0	0.684899	-0.139168	-0.203297	0.698609	0.175383	0	0	0.0945466	0.141631	0.143108	0.0365224	-0.515691	0.333998	0.900496	1.13169	0	0	-0.1756	-0.200214	0.639893	0.419934	1.35635	0	0
0.64	-3.02577	1.38985	1.35811	0.700349	0.362919	1.01377	0.165529	0.0877345	-0.0383142	0.568452	0.269322	0	0	0.683405	-0.142945	-0.210384	0.661048	0.180038	0	0	0.0966473	0.143377	0.155123	0.0318262	-0.524428	0.325459	0.913638	1.11998	0	0	-0.165614	-0.205257	0.713498	0.411965	1.28969	0	0
0.65	-3.00857	1.39096	1.33771	0.700177	0.351039	1.01232	0.148921	0.0889407	-0.0392327	0.564872	0.270567	0	0	0.681773	-0.146014	-0.217107	0.630182	0.186859	0	0	0.0950948	0.143785	0.158228	0.0363146	-0.528263	0.322042	0.921957	1.12296	0	0	-0.167892	-0.200472	0.708308	0.404544	1.29498	0	0
0.66	-2.99331	1.39306	1.31839	0.699967	0.338982	1.01085	0.132307	0.0888907	-0.0402826	0.563513	0.271495	0	0	0.678922	-0.148814	-0.22418	0.605499	0.195946	0	0	0.0927703	0.14336	0.162514	0.0398428	-0.531694	0.318715	0.929377	1.12614	0	0	-0.169874	-0.19591	0.701753	0.397088	1.30565	0	0
0.67	-2.98851	1.39129	1.30824	0.699662	0.326781	1.0089	0.123222	0.0873291	-0.0410114	0.569107	0.272464	0	0	0.681557	-0.151726	-0.230537	0.589721	0.202927	0	0	0.0962706	0.14159	0.162184	0.0503678	-0.534793	0.330458	0.930512	1.12278	0	0	-0.17822	-0.19053	0.675668	0.391373	1.33128	0	0
0.68	-2.97293	1.39996	1.28747	0.699528	0.314418	1.00793	0.10153	0.0834419	-0.0451683	0.570159	0.269744	0	0	0.670562	-0.153265	-0.236424	0.574143	0.213831	0	0	0.0854038	0.139003	0.170441	0.0482428	-0.535206	0.314741	0.939265	1.13623	0	0	-0.175874	-0.18561	0.66843	0.380547	1.35252	0	0
0.69	-2.96562	1.40513	1.2734	0.699307	0.30195	1.00659	0.0867155	0.0784306	-0.0482866	0.576956	0.268816	0	0	0.664981	-0.155829	-0.242027	0.567727	0.220661	0	0	0.0854147	0.137621	0.19819	0.0225264	-0.539058	0.27862	0.952954	1.13713	0	0	-0.152043	-0.200993	0.819892	0.374984	1.22988	0	0
0.7	-2.96277	1.40929	1.2625	0.698979	0.289337	1.00511	0.0748222	0.0727902	-0.0499891	0.586865	0.266129	0	0	0.660826	-0.158677	-0.246912	0.56707	0.224419	0	0	0.0818229	0.133807	0.208075	0.0203984	-0.54045	0.272724	0.957808	1.13732	0	0	-0.150748	-0.198834	0.822471	0.367066	1.23749	0	0
0.71	-2.966	1.41233	1.25685	0.698633	0.276544	1.00351	0.0658079	0.0662515	-0.0499935	0.599553	0.262544	0	0	0.657943	-0.161485	-0.251498	0.571605	0.225028	0	0	0.0805652	0.129496	0.21723	0.0185783	-0.541009	0.269391	0.960429	1.13666	0	0	-0.150982	-0.197077	0.821916	0.359541	1.24504	0	0
0.72	-2.97578	1.41444	1.25761	0.698329	0.263555	1.00185	0.0588352	0.058866	-0.0484256	0.613401	0.257976	0	0	0.655964	-0.163696	-0.255371	0.580689	0.22326	0	0	0.0813189	0.124332	0.225256	0.0168184	-0.540562	0.268029	0.960907	1.13589	0	0	-0.152534	-0.19598	0.818451	0.352786	1.25359	0	0
0.73	-2.99297	1.41521	1.26562	0.698013	0.250367	1.00009	0.0550358	0.0506988	-0.04556	0.630134	0.2512	0	0	0.655283	-0.16531	-0.258657	0.594204	0.218932	0	0	0.0806584	0.116917	0.22021	0.0302231	-0.53831	0.28667	0.955736	1.13534	0	0	-0.169597	-0.182534	0.700762	0.342632	1.36595	0	0
0.74	-3.01409	1.4153	1.27799	0.697677	0.236845	0.998313	0.0522383	0.0423308	-0.0417956	0.646816	0.244958	0	0	0.65433	-0.166182	-0.260682	0.610736	0.214054	0	0	0.0901886	0.1121	0.242851	0.00453829	-0.535254	0.258178	0.959689	1.13864	0	0	-0.155042	-0.198837	0.830814	0.34137	1.24815	0	0
0.75	-3.03865	1.41501	1.29456	0.697425	0.222991	0.996583	0.0505608	0.0333649	-0.0376958	0.664363	0.235919	0	0	0.652211	-0.165581	-0.260429	0.628251	0.206267	0	0	0.0968102	0.105409	0.248806	-0.00220504	-0.531496	0.256226	0.957308	1.13902	0	0	-0.157568	-0.200564	0.836711	0.335399	1.23365	0	0
0.76	-3.06919	1.41464	1.31757	0.697244	0.208847	0.994909	0.0501535	0.0234404	-0.0330133	0.683753	0.224935	0	0	0.648639	-0.163581	-0.26054	0.645971	0.195854	0	0	0.104735	0.0976501	0.254405	-0.0103035	-0.526908	0.254736	0.953555	1.13993	0	0	-0.160906	-0.203473	0.84352	0.330041	1.22142	0	0
0.77	-3.11016	1.41594	1.35174	0.697214	0.194537	0.993586	0.0502795	0.0110524	-0.0286952	0.70626	0.211418	0	0	0.642578	-0.15939	-0.26587	0.662017	0.182905	0	0	0.111939	0.0874565	0.258433	-0.017119	-0.520818	0.255522	0.946358	1.14134	0	0	-0.164057	-0.206312	0.849892	0.323544	1.21007	0	0
0.78	3.11254	1.41953	1.40733	0.697392	0.180241	0.992951	0.0506487	-0.00460447	-0.0243987	0.73159	0.193287	0	0	0.635228	-0.151624	-0.278391	0.675059	0.168054	0	0	0.116312	0.0724827	0.259604	-0.0206595	-0.512102	0.258901	0.934311	1.14459	0	0	-0.165567	-0.209295	0.854372	0.316091	1.18682	0	0
0.79	3.03861	1.42433	1.47975	0.697766	0.166083	0.992934	0.0515886	-0.021016	-0.0201539	0.759173	0.166218	0	0	0.628274	-0.141282	-0.287759	0.687158	0.15032	0	0	0.112194	0.0511624	0.235552	0.00546106	-0.501986	0.300695	0.910435	1.13898	0	0	-0.188264	-0.190416	0.657881	0.298937	1.34123	0	0
0.8	2.96199	1.42744	1.55789	0.69839	0.152028	0.993172	0.056296	-0.035937	-0.0142988	0.791004	0.144626	0	0	0.621809	-0.130105	-0.285757	0.697118	0.133243	0	0	0.118455	0.0346357	0.247445	-0.019515	-0.488892	0.272304	0.901668	1.15593	0	0	-0.170216	-0.210664	0.80892	0.294685	1.1963	0	0
0.81	2.89145	1.4286	1.63337	0.699381	0.138056	0.993484	0.0646571	-0.0487651	-0.00776223	0.825069	0.113601	0	0	0.615941	-0.117133	-0.276401	0.705885	0.122333	0	0	0.121324	0.0175305	0.240862	-0.0266402	-0.47817	0.271972	0.889146	1.15956	0	0	-0.167238	-0.215611	0.823107	0.286276	1.17319	0	0
0.82	2.82907	1.42812	1.70343	0.700736	0.124149	0.993842	0.0763323	-0.0599769	-0.00144495	0.86051	0.0749387	0	0	0.610978	-0.103201	-0.267214	0.714401	0.11646	0	0	0.125011	0.00221126	0.231437	-0.0358322	-0.468466	0.271099	0.878628	1.16334	0	0	-0.164187	-0.220564	0.837873	0.278602	1.15582	0	0
0.83	2.77685	1.42595	1.76518	0.702288	0.110343	0.994221	0.0912946	-0.0695475	0.00394329	0.896194	0.0297891	0	0	0.606951	-0.0902611	-0.26254	0.722774	0.110256	0	0	0.129515	-0.0113858	0.218837	-0.045821	-0.459544	0.271235	0.869724	1.16625	0	0	-0.161518	-0.225724	0.848504	0.27318	1.13651	0	0
